<svg width="110" height="110" viewBox="0 0 110 110" fill="none" xmlns="http://www.w3.org/2000/svg">
    <path d="M84.933 17.188H24.425a7.238 7.238 0 0 0-7.238 7.237v60.508a7.238 7.238 0 0 0 7.238 7.237h60.508a7.238 7.238 0 0 0 7.237-7.237V24.425a7.238 7.238 0 0 0-7.237-7.238z" fill="#F24C1B"/>
    <path d="M51.859 50.431h5.63c3.409 0 6.682 1.36 9.095 3.772a12.87 12.87 0 0 1 3.771 9.095v13.819c0 .85-.34 1.676-.94 2.277-.6.6-1.427.94-2.277.94h-24.93c-.849 0-1.676-.34-2.276-.94-.6-.6-.94-1.428-.94-2.277V63.298c0-3.409 1.359-6.682 3.772-9.095a12.87 12.87 0 0 1 9.095-3.772zM54.69 47.215a8.044 8.044 0 0 0 8.042-8.042 8.044 8.044 0 0 0-8.042-8.042 8.044 8.044 0 0 0-8.042 8.042 8.044 8.044 0 0 0 8.042 8.041z" fill="#fff"/>
</svg>
