<svg width="81" height="80" viewBox="0 0 81 80" fill="none" xmlns="http://www.w3.org/2000/svg">
    <circle cx="40.164" cy="40" r="40" fill="#fff"/>
    <path d="M34.556 37.258c.078-2.384 1.007-4.365 2.626-6.021 2.23-2.285 4.448-4.589 6.78-6.768 4.792-4.478 12.493-2.286 14.065 3.983.703 2.804.192 5.445-1.78 7.591-2.278 2.482-4.713 4.821-7.101 7.202a1.507 1.507 0 0 1-2.168.002c-.601-.605-.587-1.53.079-2.2 2.211-2.23 4.453-4.43 6.652-6.67 1.595-1.626 1.98-3.922 1.077-5.992-1.484-3.403-6.027-4.347-8.694-1.764a352.854 352.854 0 0 0-6.857 6.845c-2.472 2.531-1.948 6.564 1.06 8.439.474.294.881.622.979 1.199.103.613-.077 1.139-.6 1.5-.553.381-1.14.381-1.716.048-1.885-1.09-3.214-2.654-3.856-4.737-.265-.86-.369-1.77-.546-2.656v-.002z" fill="#000"/>
    <path d="M45.873 43.14c-.049 2.34-.967 4.29-2.553 5.92-2.225 2.29-4.437 4.598-6.777 6.767-5.18 4.8-12.411 1.895-14.026-3.629-.86-2.943-.328-5.698 1.748-7.983 1.94-2.137 4.042-4.128 6.073-6.182.301-.304.6-.611.91-.906.668-.636 1.551-.654 2.153-.054.609.608.623 1.562-.009 2.21-.995 1.022-2.014 2.02-3.023 3.03-1.21 1.21-2.445 2.398-3.627 3.637-2.625 2.754-1.9 7.01 1.465 8.714 1.925.974 4.438.701 5.99-.797 2.45-2.365 4.885-4.753 7.22-7.23 2.39-2.537 1.57-6.68-1.569-8.376-.538-.292-.94-.643-1.007-1.276-.06-.574.112-1.066.597-1.401.552-.383 1.147-.364 1.723-.063 2.163 1.13 3.633 2.851 4.289 5.207.218.782.286 1.606.422 2.412h.002z" fill="#000"/>
</svg>
