<svg width="110" height="110" viewBox="0 0 64 64" fill="none" xmlns="http://www.w3.org/2000/svg">
    <path d="M15.45 16.697a7.698 7.698 0 0 1 15.395 0v3.526H15.45v-3.526z" stroke="#F24C1B" stroke-width="3.69" stroke-miterlimit="10"/>
    <path d="M38.232 15.979H8.07A2.07 2.07 0 0 0 6 18.049v31.045a2.07 2.07 0 0 0 2.07 2.07h30.162a2.07 2.07 0 0 0 2.07-2.07V18.048a2.07 2.07 0 0 0-2.07-2.069z" fill="#FFC3AE"/>
    <path d="M45.85 55.322c6.628 0 12-5.373 12-12 0-6.629-5.372-12.001-12-12.001-6.627 0-12 5.372-12 12s5.373 12 12 12z" fill="#F24C1B"/>
    <path d="m41.81 42.82 3.579 3.796M51.05 40.441l-5.661 6.175" stroke="#fff" stroke-width="3.69" stroke-linecap="round" stroke-linejoin="round"/>
</svg>
