<svg width="110" height="110" viewBox="0 0 110 110" fill="none" xmlns="http://www.w3.org/2000/svg">
    <path d="M82.409 59.422a8.135 8.135 0 0 0-2.364-5.725L63.236 36.888a3.765 3.765 0 0 0-4.227-.755l-7.722 2.643a8.129 8.129 0 0 1-6.054.073c-2.667-1.035-4.166-1.23-4.58-4.044-.231-1.559.146-3.155.926-4.507a8.22 8.22 0 0 1 1.425-1.815c.341-.329 1.437-1.474 1.937-1.425-1.803-.183-3.594-.158-5.396-.158H33.88c-3.715 0-11.194.012-14.91.012h-4.628c-3.18 0-5.75 2.57-5.75 5.75v25.067c0 3.18 2.57 5.75 5.75 5.75h4.763c0 1.473.56 2.947 1.68 4.068L43.492 90.25a8.135 8.135 0 0 0 5.725 2.363 8.135 8.135 0 0 0 5.725-2.363l25.104-25.104a8.135 8.135 0 0 0 2.364-5.725z" fill="#FFC3AE"/>
    <path d="M67.645 19.482a8.151 8.151 0 0 0-6.017 0l-16.821 6.906a7.413 7.413 0 0 0-2.583 1.645 7.344 7.344 0 0 0-1.693 2.545 7.509 7.509 0 0 0-.523 3.009 7.378 7.378 0 0 0 .742 2.96 8.178 8.178 0 0 0 4.422 4.141c1.949.755 4.13.731 6.054-.073l11.023-5.006a3.78 3.78 0 0 1 4.24.767l16.796 16.797a8.135 8.135 0 0 1 2.363 5.725 8.135 8.135 0 0 1-2.363 5.725c-2.387 2.388-.694 6.456 2.68 6.456h11.462a3.784 3.784 0 0 0 3.788-3.788v-42.9c0-2.814-2.96-4.641-5.481-3.387l-9.257 4.629a3.759 3.759 0 0 1-3.094.134l-15.738-6.273v-.012z" fill="#F24C1B"/>
</svg>
