<svg width="103" height="103" viewBox="0 0 103 103" fill="none" xmlns="http://www.w3.org/2000/svg">
    <path d="M66.653 12.875H9.996a6.777 6.777 0 0 0-6.777 6.777V76.31a6.777 6.777 0 0 0 6.777 6.777h56.657a6.777 6.777 0 0 0 6.777-6.777V19.652a6.777 6.777 0 0 0-6.777-6.777z" fill="#FFC3AE"/>
    <path d="M18.788 34.13H34.58M44.19 59.615h15.802M51.21 52.774h1.761M51.21 66.456h1.761" stroke="#fff" stroke-width="3.31" stroke-linecap="round" stroke-linejoin="round"/>
    <path d="M44.274 34.13h15.793M52.176 26.228v15.803" stroke="#F24C1B" stroke-width="3.31" stroke-linecap="round" stroke-linejoin="round"/>
    <path d="M21.1 65.205 32.27 54.037M21.1 54.037 32.27 65.205" stroke="#fff" stroke-width="3.31" stroke-linecap="round" stroke-linejoin="round"/>
    <path d="M81.077 89.779c10.666 0 19.313-8.647 19.313-19.314 0-10.666-8.647-19.313-19.313-19.313-10.666 0-19.313 8.647-19.313 19.313 0 10.667 8.647 19.314 19.313 19.314z" fill="#F24C1B"/>
    <path d="m73.017 63.349 3.956 14.233M80.918 63.349l-3.956 14.233M88.808 63.349l-3.956 14.233M80.917 63.349l3.956 14.233M72.974 70.465h16.205" stroke="#fff" stroke-width="3.31" stroke-linecap="round" stroke-linejoin="round"/>
</svg>
