<svg width="24" height="24" viewBox="0 0 24 24" fill="none" xmlns="http://www.w3.org/2000/svg">
    <path d="m8.96 10.462 5.08-2.886m0 9.47L8.96 14.15" stroke="#FC5000" stroke-width="2" stroke-linecap="round" stroke-linejoin="round"/>
    <path d="M5.727 16.038a3.727 3.727 0 1 0 0-7.454 3.727 3.727 0 0 0 0 7.454zM17.273 9.454a3.727 3.727 0 1 0 0-7.454 3.727 3.727 0 0 0 0 7.454zM17.273 22.611a3.727 3.727 0 1 0 0-7.453 3.727 3.727 0 0 0 0 7.453z" fill="#FC5000"/>
    <path d="M5.727 16.038a3.727 3.727 0 1 0 0-7.454 3.727 3.727 0 0 0 0 7.454zM17.273 9.454a3.727 3.727 0 1 0 0-7.454 3.727 3.727 0 0 0 0 7.454zM17.273 22.611a3.727 3.727 0 1 0 0-7.453 3.727 3.727 0 0 0 0 7.453z" fill="#FC5000"/>
</svg>
