<svg width="30" height="30" viewBox="0 0 30 30" fill="none" xmlns="http://www.w3.org/2000/svg">
    <path d="M0 15C0 6.716 6.716 0 15 0c8.284 0 15 6.716 15 15 0 8.284-6.716 15-15 15-8.284 0-15-6.716-15-15z" fill="#D9D9D9"/>
    <g clip-path="url(#zjjf2nilca)" fill="#1C1C1C">
        <path d="M17.47 18.269a2.58 2.58 0 0 0-5.04 0H7.444v1.11h4.986a2.58 2.58 0 0 0 5.04 0H23v-1.11h-5.53zm-1.16 1.11c-.22.536-.747.915-1.36.915a1.473 1.473 0 0 1-1.36-2.025c.22-.536.747-.915 1.36-.915a1.473 1.473 0 0 1 1.36 2.026zM12.1 11.025a2.58 2.58 0 1 0 0 1.111H23v-1.11H12.1zM9.58 13.05a1.473 1.473 0 0 1-1.36-2.025c.22-.535.747-.914 1.36-.914a1.473 1.473 0 0 1 1.36 2.025c-.22.536-.746.915-1.36.915z"/>
    </g>
    <defs>
        <clipPath id="zjjf2nilca">
            <path fill="#fff" transform="translate(7 9)" d="M0 0h16v12.405H0z"/>
        </clipPath>
    </defs>
</svg>
