<svg width="21" height="26" viewBox="0 0 21 26" fill="none" xmlns="http://www.w3.org/2000/svg">
    <g clip-path="url(#v9bekudh4a)">
        <path d="M20.34 8.866c-.15.117-2.793 1.597-2.793 4.94 0 3.86 3.354 5.224 3.453 5.257-.017.1-.529 1.863-1.768 3.693-1.09 1.597-2.264 3.21-4.015 3.21s-2.214-1.047-4.23-1.047C9.005 24.919 8.311 26 6.708 26c-1.603 0-2.726-1.497-4.015-3.31C1.206 20.544 0 17.233 0 14.073c0-5.04 3.255-7.735 6.477-7.735 1.702 0 3.123 1.131 4.197 1.131 1.007 0 2.594-1.198 4.543-1.198.744 0 3.387.067 5.122 2.595zm-9.534-2.878c-.132 0-.265-.016-.347-.033a2.3 2.3 0 0 1-.05-.466c0-1.347.677-2.678 1.421-3.526C12.755.865 14.325.05 15.614 0c.033.15.05.333.05.516 0 1.33-.563 2.661-1.356 3.626-.859 1.065-2.33 1.846-3.502 1.846z" fill="#fff"/>
    </g>
    <defs>
        <clipPath id="v9bekudh4a">
            <path fill="#fff" d="M0 0h21v26H0z"/>
        </clipPath>
    </defs>
</svg>
