<svg width="32" height="32" viewBox="0 0 32 32" fill="none" xmlns="http://www.w3.org/2000/svg">
    <path d="M20.243 13.09a2.914 2.914 0 0 0-2.913 2.912 2.914 2.914 0 0 0 2.913 2.912h6.848a2.914 2.914 0 0 0 2.912-2.912 2.914 2.914 0 0 0-2.912-2.913h-6.848z" fill="#FF5100"/>
    <path d="M18.914 4.913A2.914 2.914 0 0 0 16.002 2a2.914 2.914 0 0 0-2.913 2.913v8.176H4.913A2.914 2.914 0 0 0 2 16.002a2.914 2.914 0 0 0 2.913 2.912h8.176v8.177a2.914 2.914 0 0 0 2.913 2.912 2.914 2.914 0 0 0 2.912-2.912v-7.167a4.135 4.135 0 0 1-2.81-3.919 4.135 4.135 0 0 1 2.81-3.919V4.913z" fill="#000"/>
</svg>
