<svg width="125" height="26" viewBox="0 0 125 26" fill="none" xmlns="http://www.w3.org/2000/svg">
    <path d="M80.327 1.452C77.911 1.452 75.65.92 73.725 0c1.156 2.043 3.676 3.462 6.602 3.462S85.773 2.043 86.93 0c-1.925.924-4.183 1.452-6.603 1.452z" fill="#FF5100"/>
    <path d="m125 25.549-7.197-10.785 6.768-9.037h-4.138l-6.765 9.03h-.007l.004.007-.004.008h.007l7.194 10.777H125zM112.471 25.556h-3.824V6.485a.75.75 0 0 1 .75-.75h3.071v19.823h.003zM102.492 17.01c.953-.458 1.688-1.097 2.18-1.895.521-.846.783-1.806.783-2.863v-.998c0-.794-.144-1.54-.432-2.217a4.816 4.816 0 0 0-1.264-1.75c-.547-.481-1.23-.865-2.032-1.143-.798-.277-1.722-.413-2.745-.413H92.18a.75.75 0 0 0-.75.75v19.068h3.824V8.982h3.295c1.135 0 1.944.222 2.409.665.47.443.699 1.005.699 1.714v.81c0 .687-.24 1.234-.736 1.67-.491.436-1.392.654-2.67.654h-1.165v3.258h1.826l3.266 7.8h4.16c0-.004-3.226-7.179-3.846-8.542zM11.062 17.01c.953-.458 1.689-1.097 2.18-1.895.52-.846.783-1.806.783-2.863v-.998c0-.794-.144-1.54-.432-2.217a4.811 4.811 0 0 0-1.264-1.75c-.546-.481-1.23-.865-2.032-1.143-.798-.277-1.722-.413-2.745-.413H.75a.75.75 0 0 0-.75.75v19.068h3.824V8.982H7.12c1.134 0 1.943.222 2.409.665.469.443.698 1.005.698 1.714v.81c0 .687-.24 1.234-.735 1.67-.492.436-1.393.654-2.672.654H5.657v3.258h1.825l3.266 7.8h4.16c0-.004-3.225-7.179-3.846-8.542zM48.918 7.504a7.13 7.13 0 0 0-2.653-1.507 10.668 10.668 0 0 0-6.288 0 7.21 7.21 0 0 0-2.653 1.507c-.761.684-1.367 1.574-1.81 2.646-.44 1.067-.665 2.379-.665 3.894v3.18c0 1.534.221 2.857.661 3.932.443 1.083 1.046 1.973 1.796 2.646a7.037 7.037 0 0 0 2.638 1.481 10.75 10.75 0 0 0 3.17.462 10.75 10.75 0 0 0 3.17-.462 7.01 7.01 0 0 0 2.638-1.482c.75-.676 1.356-1.566 1.796-2.645.44-1.079.665-2.401.665-3.931v-3.181c0-1.515-.222-2.823-.666-3.895-.428-1.071-1.038-1.961-1.799-2.645zm-1.308 6.968V16.8c0 1.079-.118 1.988-.347 2.697-.23.698-.547 1.26-.95 1.666a3.298 3.298 0 0 1-1.407.85c-1.075.322-2.424.333-3.529 0a3.298 3.298 0 0 1-1.407-.85c-.403-.406-.728-.968-.965-1.666-.24-.706-.362-1.614-.362-2.693v-2.328c0-1.079.122-1.988.362-2.694.237-.701.562-1.26.965-1.666a3.3 3.3 0 0 1 1.407-.85 6.135 6.135 0 0 1 1.752-.247c.631 0 1.23.081 1.777.247a3.277 3.277 0 0 1 1.407.85c.403.407.72.965.95 1.667.23.702.347 1.61.347 2.69zM66.143 5.727a.75.75 0 0 0-.75.75V18.99a.255.255 0 0 1-.011-.03c-.244-.532-7.316-13.157-7.316-13.157a.15.15 0 0 0-.133-.077h-3.417a.75.75 0 0 0-.75.75v19.076h3.824V12.34c.203.462 7.326 13.131 7.326 13.131a.15.15 0 0 0 .133.078h4.172V5.727h-3.078zM89.45 25.556 82.233 5.735v-.003h-2.986c-.462 0-.975.376-1.141.838l-6.91 18.987h3.825l5.301-14.572 2.273 6.24h-3.577l-1.034 3.141h5.752l1.892 5.195h3.82v-.003zM34.753 25.556 27.537 5.735v-.003H24.55c-.461 0-.975.376-1.141.838L16.5 25.556h3.825l5.302-14.572 2.272 6.24h-3.577l-1.034 3.141h5.753l1.891 5.195h3.82v-.003z" fill="#231916"/>
</svg>
