<svg width="23" height="23" viewBox="0 0 23 23" fill="none" xmlns="http://www.w3.org/2000/svg">
    <path d="M22.191 9.405H11.426v4.446h6.144a5.304 5.304 0 0 1-2.285 3.476l3.695 2.888c2.158-2.006 3.402-4.945 3.402-8.446 0-.818-.076-1.598-.203-2.351l.012-.013z" fill="#fff"/>
    <path d="M15.298 17.327c-1.028.69-2.336 1.099-3.872 1.099-2.97 0-5.497-2.02-6.399-4.74l-3.821 2.976C3.085 20.42 6.944 23 11.413 23c3.085 0 5.675-1.035 7.567-2.786l-3.695-2.887h.013z" fill="#fff"/>
    <path d="M5.027 9.315 1.22 6.337a11.53 11.53 0 0 0 0 10.324l3.821-2.976a6.97 6.97 0 0 1-.355-2.185c0-.754.127-1.495.355-2.185h-.013z" fill="#fff"/>
    <path d="M11.426 0C6.957 0 3.098 2.581 1.219 6.338L5.04 9.315c.901-2.722 3.415-4.74 6.398-4.74 1.676 0 3.187.574 4.368 1.724l3.275-3.296c-1.98-1.853-4.57-2.99-7.643-2.99L11.426 0z" fill="#fff"/>
</svg>
