<svg width="20" height="20" viewBox="0 0 20 20" fill="none" xmlns="http://www.w3.org/2000/svg">
    <g clip-path="url(#gvy6hrziza)">
        <path d="m1.684 19.976.376-.453c.67-.809 1.36-1.604 1.916-2.497.24-.386.45-.792.667-1.192.104-.192.133-.403.133-.62 0-.08-.032-.124-.102-.16a9.375 9.375 0 0 1-2.632-1.962C1.049 12.027.372 10.797.112 9.36-.17 7.803.082 6.322.823 4.925c.727-1.372 1.8-2.421 3.11-3.244A10.921 10.921 0 0 1 7.582.24 12.16 12.16 0 0 1 11.478.09c1.592.19 3.09.676 4.464 1.507 1.395.845 2.526 1.947 3.283 3.401.451.87.712 1.793.764 2.774.106 2.01-.599 3.726-1.924 5.21-.982 1.097-2.185 1.886-3.543 2.45a11.408 11.408 0 0 1-3.167.804c-.776.085-1.552.1-2.331.036a.328.328 0 0 0-.213.058c-.62.48-1.3.862-1.99 1.231-1.302.699-2.648 1.304-3.992 1.92-.374.17-.748.345-1.122.518l-.024-.023z" fill="#000"/>
    </g>
    <defs>
        <clipPath id="gvy6hrziza">
            <path fill="#fff" d="M0 0h20v20H0z"/>
        </clipPath>
    </defs>
</svg>
