<svg width="21" height="21" viewBox="0 0 21 21" fill="none" xmlns="http://www.w3.org/2000/svg">
    <g clip-path="url(#1mortg3gca)" fill="#696969">
        <path d="M21 10.51C20.996 16.296 16.27 21.01 10.485 21 4.693 20.99-.008 16.272 0 10.48.008 4.7 4.722-.003 10.503 0c5.789.003 10.5 4.72 10.496 10.51H21zm-1.319-.006c0-5.071-4.098-9.18-9.163-9.184-5.065-.004-9.195 4.119-9.198 9.184-.003 5.067 4.099 9.173 9.169 9.18a9.175 9.175 0 0 0 9.192-9.178v-.002z"/>
        <path d="M8.607 7.677c-.496 0-.987.005-1.476-.007-.043 0-.12-.113-.12-.171.081-1.798.829-2.797 2.585-3.171.772-.165 1.555-.109 2.315.124 1.283.396 2.1 1.551 2.089 2.897-.008.898-.247 1.713-.815 2.412-.407.5-.812 1.015-1.28 1.457-.51.481-.745 1.04-.746 1.721v.319h-1.65c-.072-1.02.161-1.902.92-2.644.542-.53 1.02-1.136 1.479-1.744.456-.604.525-1.309.329-2.03-.177-.65-.634-1.045-1.285-1.145a3.175 3.175 0 0 0-1.11.05c-.74.154-1.071.695-1.17 1.405-.023.168-.043.337-.066.526l.001.001zM11.213 15.008v1.72H9.494v-1.72h1.72z"/>
    </g>
    <defs>
        <clipPath id="1mortg3gca">
            <path fill="#fff" d="M0 0h21v21H0z"/>
        </clipPath>
    </defs>
</svg>
